<?xml version="1.0" ?><!DOCTYPE svg  PUBLIC '-//W3C//DTD SVG 1.1//EN'  'http://www.w3.org/Graphics/SVG/1.1/DTD/svg11.dtd'><svg enable-background="new 0 0 500 500" height="500px" id="Layer_1" version="1.1" viewBox="0 0 500 500" width="500px" xml:space="preserve" xmlns="http://www.w3.org/2000/svg" xmlns:xlink="http://www.w3.org/1999/xlink"><path clip-rule="evenodd" d="M31.949,431.711c0,20.078,16.264,36.34,36.34,36.34h363.421  c20.078,0,36.34-16.262,36.34-36.34V68.29c0-20.077-16.262-36.34-36.34-36.34H68.29c-20.077,0-36.34,16.264-36.34,36.34V431.711z   M113.718,250c0-30.074,24.438-54.513,54.513-54.513c12.536,0,24.075,4.268,33.253,11.268l75.949-34.434  c-0.176-1.366-0.176-2.724-0.176-4.09c0-30.075,24.435-54.513,54.514-54.513c30.078,0,54.513,24.438,54.513,54.513  c0,30.072-24.435,54.513-54.513,54.513c-13.992,0-26.808-5.271-36.433-13.992l-73.229,33.255c0.453,2.635,0.634,5.269,0.634,7.993  c0,2.725-0.182,5.36-0.634,7.994l73.229,33.164c9.625-8.631,22.44-13.9,36.433-13.9c30.078,0,54.513,24.435,54.513,54.514  c0,30.078-24.435,54.513-54.513,54.513c-30.079,0-54.514-24.435-54.514-54.513c0-1.368,0-2.725,0.176-4.093l-75.949-34.521  c-9.178,7.087-20.717,11.355-33.253,11.355C138.156,304.513,113.718,280.078,113.718,250z" fill="#6c5ce7" fill-rule="evenodd"/></svg>