<svg xmlns="http://www.w3.org/2000/svg" xmlns:xlink="http://www.w3.org/1999/xlink" viewBox="0 0 358 358"><defs><style>.cls-1{fill:url(#linear-gradient);}.cls-2{fill:none;}.cls-3{fill:#fff;}</style><linearGradient id="linear-gradient" y1="179" x2="358" y2="179" gradientUnits="userSpaceOnUse"><stop offset="0" stop-color="#e25e5a"/><stop offset="1" stop-color="#f56960"/></linearGradient></defs><title>Asset 1</title><g id="Layer_2" data-name="Layer 2"><g id="Layer_1-2" data-name="Layer 1"><rect class="cls-1" width="358" height="358" rx="49.34" ry="49.34"/><path class="cls-2" d="M90,80.32H260v170H90Z"/><path class="cls-3" d="M188,65.84v90.53H278.5A90.5,90.5,0,0,0,188,65.84ZM259.49,223a90,90,0,0,0,19-55.34H113.74L103,145.05H63.5v22.63H88.62s21.39,46.06,24,50a39.59,39.59,0,1,0,57.94,40.51h23.53A39.58,39.58,0,1,0,259.49,223Zm-128.1,46.51a17,17,0,1,1,17-17A17,17,0,0,1,131.39,269.53Zm101.85,0a17,17,0,1,1,17-17A17,17,0,0,1,233.24,269.53Z"/></g></g></svg>